<svg width="20" height="20" viewBox="0 0 20 20" fill="none" xmlns="http://www.w3.org/2000/svg">
<path d="M10 0C8.02219 0 6.08879 0.586489 4.4443 1.6853C2.79981 2.78412 1.51809 4.3459 0.761209 6.17316C0.00433267 8.00043 -0.1937 10.0111 0.192152 11.9509C0.578004 13.8907 1.53041 15.6725 2.92894 17.0711C4.32746 18.4696 6.10929 19.422 8.0491 19.8078C9.98891 20.1937 11.9996 19.9957 13.8268 19.2388C15.6541 18.4819 17.2159 17.2002 18.3147 15.5557C19.4135 13.9112 20 11.9778 20 10C19.9948 7.34943 18.9396 4.8089 17.0653 2.93466C15.1911 1.06041 12.6506 0.00518197 10 0ZM10 18.8235C8.25487 18.8235 6.54893 18.306 5.09791 17.3365C3.64689 16.367 2.51596 14.9889 1.84813 13.3766C1.18029 11.7643 1.00556 9.99021 1.34602 8.27861C1.68647 6.56702 2.52683 4.99481 3.76083 3.76082C4.99482 2.52683 6.56702 1.68647 8.27862 1.34601C9.99021 1.00555 11.7643 1.18029 13.3766 1.84812C14.9889 2.51595 16.367 3.64689 17.3365 5.09791C18.306 6.54893 18.8235 8.25487 18.8235 10C18.8209 12.3393 17.8905 14.5821 16.2363 16.2363C14.5821 17.8905 12.3394 18.8209 10 18.8235ZM6.66667 10C6.66667 10.6996 6.88679 11.3815 7.29586 11.949C7.70493 12.5166 8.2822 12.941 8.94591 13.1623C9.60962 13.3835 10.3261 13.3903 10.9939 13.1817C11.6617 12.9731 12.2469 12.5597 12.6667 12C12.7603 11.8752 12.8996 11.7927 13.0541 11.7706C13.2085 11.7486 13.3654 11.7887 13.4902 11.8823C13.615 11.976 13.6975 12.1153 13.7196 12.2697C13.7416 12.4242 13.7015 12.5811 13.6078 12.7059C13.0399 13.4631 12.2482 14.0224 11.3447 14.3047C10.4412 14.5869 9.47183 14.5777 8.57388 14.2784C7.67592 13.9791 6.89491 13.4048 6.34146 12.6369C5.78801 11.8691 5.4902 10.9465 5.4902 10C5.4902 9.05347 5.78801 8.13093 6.34146 7.36307C6.89491 6.59521 7.67592 6.02094 8.57388 5.72162C9.47183 5.4223 10.4412 5.41311 11.3447 5.69533C12.2482 5.97755 13.0399 6.53689 13.6078 7.29412C13.6542 7.35591 13.6879 7.42624 13.7071 7.50107C13.7263 7.5759 13.7305 7.65377 13.7196 7.73025C13.7087 7.80672 13.6828 7.88029 13.6434 7.94676C13.6041 8.01323 13.552 8.0713 13.4902 8.11765C13.4284 8.16399 13.3581 8.19772 13.2832 8.21689C13.2084 8.23606 13.1305 8.2403 13.0541 8.22938C12.9776 8.21846 12.904 8.19258 12.8376 8.15322C12.7711 8.11386 12.713 8.0618 12.6667 8C12.2469 7.44031 11.6617 7.02689 10.9939 6.81829C10.3261 6.60969 9.60962 6.61649 8.94591 6.83772C8.2822 7.05896 7.70493 7.48341 7.29586 8.05096C6.88679 8.61852 6.66667 9.30039 6.66667 10Z" fill="#F9F9F9"/>
</svg>
