<svg width="40" height="40" viewBox="0 0 40 40" fill="none" xmlns="http://www.w3.org/2000/svg">
<path fill-rule="evenodd" clip-rule="evenodd" d="M40.0001 20C40.0001 31.0457 31.0457 40.0001 20 40.0001C8.95432 40.0001 0 31.0457 0 20C0 8.95432 8.95432 0 20 0C31.0457 0 40.0001 8.95432 40.0001 20ZM20.7166 14.7664C18.754 15.5764 14.8599 17.2275 9.03432 19.782C8.09973 20.1559 7.60129 20.5297 7.53899 20.8724C7.45656 21.4768 8.22224 21.7178 9.25901 22.0441C9.39778 22.0878 9.54142 22.133 9.68852 22.1808C10.7166 22.5235 12.0873 22.9284 12.8038 22.9284C13.458 22.9284 14.1745 22.6792 14.9845 22.1185C20.4362 18.4425 23.2399 16.5733 23.4269 16.5421C23.5515 16.511 23.7072 16.4798 23.8318 16.5733C23.9391 16.6537 23.931 16.8034 23.9266 16.8833C23.9259 16.8962 23.9253 16.9073 23.9253 16.916C23.8577 17.2315 21.1489 19.748 19.5496 21.2338C18.9381 21.8018 18.4888 22.2192 18.4113 22.3054C18.2578 22.4631 18.1014 22.6127 17.9508 22.7567C17.0009 23.6652 16.2811 24.3536 17.9751 25.483C18.887 26.0798 19.596 26.562 20.3227 27.0563C20.9614 27.4907 21.6139 27.9344 22.43 28.4736C22.6685 28.626 22.8971 28.7854 23.1204 28.9411C23.947 29.5175 24.7 30.0425 25.6075 29.9689C26.1371 29.9066 26.6979 29.4082 26.9783 27.9129C27.6636 24.3926 28.9409 16.6979 29.2524 13.5515C29.2836 13.2711 29.2524 12.9284 29.2213 12.7727C29.1901 12.6169 29.1278 12.3988 28.9409 12.2431C28.6917 12.0562 28.3178 12.025 28.1621 12.025C27.4144 12.0562 26.2618 12.4611 20.7166 14.7664Z" fill="white"/>
</svg>
