<svg width="40" height="40" viewBox="0 0 40 40" fill="none" xmlns="http://www.w3.org/2000/svg">
<path fill-rule="evenodd" clip-rule="evenodd" d="M34.1575 5.81611C30.4057 2.06225 25.4033 0 20.0764 0C9.1074 0 0.171838 8.89522 0.162291 19.8147C0.162291 23.312 1.07876 26.7142 2.81623 29.7268L0 40L10.5585 37.244C13.4702 38.8216 16.7446 39.6579 20.0764 39.6579H20.0859C31.0549 39.6579 39.9905 30.7627 40 19.8337C39.9905 14.5403 37.9189 9.56047 34.1575 5.81611ZM20.0764 36.3032C17.0979 36.3032 14.1862 35.5049 11.6468 34.0033L11.0453 33.6422L4.78282 35.2768L6.45346 29.1946L6.06205 28.5674C4.40095 25.9444 3.53222 22.9128 3.53222 19.8052C3.53222 10.7389 10.9594 3.34521 20.0859 3.34521C24.506 3.34521 28.6587 5.06534 31.79 8.17296C34.9117 11.2901 36.6301 15.4241 36.6301 19.8242C36.6205 28.919 29.1933 36.3032 20.0764 36.3032ZM29.1551 23.9677C28.6587 23.7206 26.2148 22.5232 25.7566 22.3521C25.2983 22.1905 24.9642 22.105 24.6396 22.5992C24.3055 23.0934 23.3508 24.2148 23.0644 24.5379C22.778 24.8705 22.4821 24.9085 21.9857 24.6614C21.4893 24.4144 19.8854 23.8917 17.9857 22.2C16.506 20.8886 15.5131 19.2635 15.2172 18.7693C14.9308 18.2751 15.1885 18.009 15.4368 17.7619C15.6563 17.5434 15.9332 17.1822 16.1814 16.8971C16.4296 16.612 16.5155 16.4029 16.6778 16.0703C16.8401 15.7377 16.7637 15.4526 16.6396 15.2055C16.5155 14.9584 15.5227 12.516 15.1026 11.5277C14.7017 10.5583 14.2912 10.6914 13.9857 10.6819C13.6993 10.6629 13.3652 10.6629 13.031 10.6629C12.6969 10.6629 12.1623 10.7864 11.7041 11.2806C11.2458 11.7748 9.96659 12.9722 9.96659 15.4146C9.96659 17.857 11.7518 20.2043 12 20.5369C12.2482 20.8696 15.5036 25.8684 20.4964 28.0162C21.6802 28.5293 22.6062 28.8335 23.3317 29.0615C24.5251 29.4417 25.6038 29.3847 26.463 29.2611C27.4177 29.1186 29.4033 28.0637 29.8234 26.9043C30.2339 25.7448 30.2339 24.7565 30.1098 24.5474C29.9857 24.3383 29.6516 24.2148 29.1551 23.9677Z" fill="#F9F9F9"/>
</svg>
