<svg width="40" height="40" viewBox="0 0 40 40" fill="none" xmlns="http://www.w3.org/2000/svg">
<path fill-rule="evenodd" clip-rule="evenodd" d="M2.80667 2.80667C0 5.61417 0 10.1317 0 19.1667V20.8333C0 29.8683 0 34.3858 2.80667 37.1933C5.61417 40 10.1317 40 19.1667 40H20.8333C29.8683 40 34.3858 40 37.1933 37.1933C40 34.3867 40 29.8683 40 20.8333V19.1667C40 10.1317 40 5.61417 37.1933 2.80667C34.3867 0 29.8683 0 20.8333 0H19.1667H19.1586C10.129 0 5.6125 0 2.80667 2.80667ZM7.9167 12.5H10.8334C11.5784 12.5 11.8592 12.825 12.1392 13.6342C13.5659 17.7892 15.9709 21.4208 16.9592 21.4208C17.3309 21.4208 17.5009 21.25 17.5009 20.3083V16.0125C17.4339 14.7904 17.007 14.2618 16.6908 13.8703C16.4956 13.6285 16.3425 13.439 16.3425 13.1708C16.3425 12.8442 16.6209 12.5 17.0842 12.5H21.6675C22.285 12.5 22.5009 12.8308 22.5009 13.5725V19.3508C22.5009 19.9683 22.7692 20.185 22.9542 20.185C23.325 20.185 23.6342 19.9683 24.3142 19.2883C26.415 16.94 27.8984 13.325 27.8984 13.325C28.0834 12.8917 28.425 12.5 29.1667 12.5H32.0825C32.9659 12.5 33.1509 12.9542 32.9659 13.5725C32.5942 15.2717 29.0409 20.2775 29.0409 20.2775C28.7325 20.7717 28.6075 21.0192 29.0409 21.575C29.1931 21.7886 29.5189 22.1078 29.8916 22.473C30.2736 22.8473 30.705 23.27 31.0492 23.6767C32.3025 25.0858 33.2467 26.275 33.5092 27.0942C33.75 27.9167 33.3334 28.3333 32.5 28.3333H29.5834C28.8022 28.3333 28.4089 27.8957 27.5593 26.9505C27.1989 26.5495 26.7565 26.0573 26.1675 25.4683C24.4375 23.8 23.6959 23.5833 23.2625 23.5833C22.675 23.5833 22.5 23.75 22.5 24.5833V27.1992C22.5 27.9167 22.2709 28.3333 20.4167 28.3333C17.3267 28.3333 13.9309 26.4575 11.5209 22.9967C7.90503 17.9292 6.9167 14.0975 6.9167 13.325C6.9167 12.8917 7.08337 12.5 7.9167 12.5Z" fill="white"/>
</svg>
