<svg width="16" height="15" viewBox="0 0 16 15" fill="none" xmlns="http://www.w3.org/2000/svg">
<path d="M10.7967 9.755L10.4175 10.1325C10.4175 10.1325 9.51502 11.0292 7.05252 8.58084C4.59002 6.1325 5.49252 5.23584 5.49252 5.23584L5.73085 4.9975C6.32002 4.4125 6.37585 3.4725 5.86169 2.78584L4.81169 1.38334C4.17502 0.533337 2.94585 0.420837 2.21669 1.14584L0.908355 2.44584C0.547522 2.80584 0.305855 3.27084 0.335022 3.7875C0.410022 5.11 1.00835 7.95417 4.34502 11.2725C7.88419 14.7908 11.205 14.9308 12.5625 14.8042C12.9925 14.7642 13.3659 14.5458 13.6667 14.2458L14.85 13.0692C15.65 12.275 15.425 10.9125 14.4017 10.3567L12.81 9.49084C12.1384 9.12667 11.3217 9.23334 10.7967 9.755Z" fill="#4CA15E"/>
</svg>
